<svg id="レイヤー_2のコピー_4" data-name="レイヤー 2のコピー 4" xmlns="http://www.w3.org/2000/svg" viewBox="0 0 988.74 233.35"><title>logo_nega</title><polygon points="783.88 0.06 677.8 93.81 677.8 0 664.46 0 558.32 93.81 558.32 0 544.62 0 438.97 105.65 379.09 105.65 379.09 0 365.72 0 260.93 93.64 260.93 0 247.4 0 0 233.35 28.35 233.35 241.48 32.33 241.48 125.12 254.9 125.12 359.64 31.52 359.64 125.1 447.03 125.1 538.87 33.27 538.87 125.12 552.26 125.12 658.35 31.36 658.35 125.12 671.74 125.12 791.24 19.51 969.29 19.51 988.74 0.06 783.88 0.06" fill="#fffdff"/></svg>